<?xml version="1.0" standalone="no"?><!DOCTYPE svg PUBLIC "-//W3C//DTD SVG 1.1//EN" "http://www.w3.org/Graphics/SVG/1.1/DTD/svg11.dtd"><svg t="1607842085176" class="icon" viewBox="0 0 1024 1024" version="1.1" xmlns="http://www.w3.org/2000/svg" p-id="12432" xmlns:xlink="http://www.w3.org/1999/xlink" width="200" height="200"><defs><style type="text/css"></style></defs><path d="M68.1 288.8c9.5-25.8 28-36.7 55.3-33.6 7.7 0.9 15.8-0.9 23.4 0.4 12.7 2.1 19.9-5.2 27.1-13.4 16.2-18.5 32.5-37 48.8-55.4 18.6-20.9 37.4-41.6 55.7-62.7 2.9-3.4 4.9-8.1 6-12.5 6-24.2 27.6-41.3 52.7-41.3 33.1 0 49.3 12.6 60.4 44.5 2.7 7.9 8.8 14.9 14.5 21.3 16.9 19 34.5 37.4 51.5 56.3 16.2 18 32.1 36.4 48 54.7 4.8 5.6 9.9 9 18 8.5 12.6-0.8 25.3 0.6 37.9-0.4 25.4-2 45.5 19.9 45.3 45-0.7 133.4-0.3 266.9-0.3 400.3v14.4h-30.7c-24.9 0-49.8 0.2-74.7-0.1-7.3-0.1-9.7 1.9-10.9 9.8-6 38-23.2 69.9-53.5 94.6-26.6 21.7-56 34.2-90.6 36.5-45 3-83.6-9.8-117.3-39.8-30.1-26.8-45.8-60.3-51.7-101H68.1V288.8z m187.3 211.8c24.2-40.3 47.2-78.5 70.9-118.1 24.3 40.5 47.1 78.6 71 118.5h-54v38.7c9.2 1.2 17.6 2.1 25.9 3.3 63.9 9.7 119.7 66.5 127.5 131.5 0.4 3.2 4.6 8.5 7.1 8.6 25.5 0.6 51 0.4 76.6 0.4V372.1H99.9v310.8h82.7c11.3-76.6 55.7-121.7 128-141v-41.3h-55.2z m325.7-161v-34.1c0-16.9-2-18.9-19.1-18.9H118.3c-2.2 0-5.2-0.9-6.6 0.2-4.4 3.4-11.4 7.3-11.9 11.6-1.5 13.5-0.6 27.2-0.6 41.3 161-0.1 320.7-0.1 481.9-0.1zM431.6 786.7c-67-50.2-133.9-100.4-201-150.7-34.6 60.2-16.3 127.2 34.5 164.4 55.4 40.4 118.7 32.2 166.5-13.7z m-41.3-628c-13.2 17.6-29.6 27.6-50.4 27.3-20.4-0.3-36.9-9.5-49.1-27.5-28.9 32.2-57.3 63.7-86.2 96h271.6c-28.9-32.4-56.9-63.5-85.9-95.8zM250.3 611c29 21.8 57.9 43.6 87 65.5 11-14.7 21.9-29.3 32.8-43.9 10.9-14.6 21.8-29.2 32.8-44-49.8-30-119.2-18-152.6 22.4z m200.4 150.3c32.9-57.7 13.4-124.9-22.9-152.8-21.7 29-43.4 58-65 86.9 29.7 22.4 58.8 44.1 87.9 65.9zM367 127.1c2.8-13.5-12.1-27.6-26.8-27.4-14.7 0.2-26.5 11.2-26.7 27.8-0.1 14.5 13.1 27.7 27.1 27.5 14.6-0.3 26.4-12.8 26.4-27.9z m-41.1 316.4c-5.3 9.3-9.7 17-14.4 25.2h29.8c-5.3-8.8-10-16.3-15.4-25.2zM955.9 607.8c-6.3 13-12 26.9-27.5 31.2-9.4 2.6-19.4 3-30.5 4.6v311.6H697.2V798.5 644.6c-13.1-3-25.6-4.2-36.7-8.7-14-5.7-21-18.7-21-33.3-0.5-82.1-1.1-164.3 0.2-246.4 0.5-33.1 26.5-60.5 61.4-65.2 11.9-1.6 23.7-3.7 37.7-5.9-32.6-21.8-52.4-50.7-56.4-88.6-4-38 8.1-71.4 36.2-97 48.4-44.2 119.6-38.7 161.6 4.1 25.4 25.9 36.5 58.5 31.3 96-5.1 36.7-23.6 64.2-55.9 85.4 14 2.3 25.6 4.9 37.3 6 29.4 2.7 55.9 27 60.9 57 0.2 1.2 1.4 2.3 2.1 3.4v256.4z m-89-53.8V383.4h31.4v114.3h26.3c0-46.8 0.2-92.8-0.3-138.8-0.1-5.8-3.1-11.9-6.2-17.1-14.1-24.6-39.1-20.8-62.6-24.4v67c-3.4-1.7-5.7-2.5-7.7-3.9-14.6-9.6-29.3-19.1-43.5-29.3-5.8-4.1-9.5-3.8-15.2 0.2-15.9 11.2-32.4 21.7-50.1 33.4v-67.3c-9.2 0.9-17.5 2-25.8 2.6-28.1 2.1-44.1 23.6-43.4 46.8 1.2 39.7 0.3 79.5 0.3 119.3v11.5h27.2V383.4h29.1v170.7c47.2-0.1 92.9-0.1 140.5-0.1z m-0.7 32.2H727v339.9h55.1V642h31.7v284.1h52.5c-0.1-113.4-0.1-226.2-0.1-339.9z m-69.7-317.5c48.7 0.2 85.2-38.6 85.3-83.2 0.1-48.6-37.5-86-84.3-85.6-46.9 0.4-83.9 34.8-84.4 85-0.5 47.7 40.1 84.5 83.4 83.8zM670.4 528c0 22.3 0.4 43.7-0.2 65.2-0.2 9.7 2.6 17.7 12.5 18.3 9.6 0.6 13.9-8.1 14.1-16.4 0.7-22.2 0.2-44.4 0.2-67.1h-26.6z m254.2 0.1h-26.7c0 23.5-0.8 46.4 0.6 69.2 0.3 5.1 8.1 9.8 12.5 14.7 4.5-4.2 12.7-8.3 13-12.8 1.3-23.5 0.6-47.1 0.6-71.1zM823.7 298.9h-52.2v26.2c5.9-3.7 11.3-6 15.5-9.8 7.2-6.6 13.3-7 20.7-0.2 4.4 4 10.1 6.4 16 10v-26.2z" p-id="12433"></path><path d="M412.1 428.5v-29.8h143.6v29.8H412.1zM412.1 484.3v-29.8h86v29.8h-86z" p-id="12434"></path></svg>